<mxfile host="app.diagrams.net" agent="Mozilla/5.0 (Windows NT 10.0; Win64; x64) AppleWebKit/537.36 (KHTML, like Gecko) Chrome/139.0.0.0 Safari/537.36" version="28.2.0">
  <diagram name="Página-1" id="ovZqv0VjJH3Nnrgt0Wr6">
    <mxGraphModel dx="1426" dy="789" grid="1" gridSize="10" guides="1" tooltips="1" connect="1" arrows="1" fold="1" page="1" pageScale="1" pageWidth="827" pageHeight="1169" math="0" shadow="0">
      <root>
        <mxCell id="0" />
        <mxCell id="1" parent="0" />
        <mxCell id="5lNwaN1Og0FVlDpz_DzG-5" style="edgeStyle=orthogonalEdgeStyle;rounded=0;orthogonalLoop=1;jettySize=auto;html=1;exitX=1;exitY=0.5;exitDx=0;exitDy=0;entryX=0;entryY=0.5;entryDx=0;entryDy=0;" parent="1" target="5lNwaN1Og0FVlDpz_DzG-4" edge="1">
          <mxGeometry relative="1" as="geometry">
            <mxPoint x="170" y="130" as="sourcePoint" />
            <mxPoint x="270" y="220" as="targetPoint" />
            <Array as="points">
              <mxPoint x="170" y="210" />
            </Array>
          </mxGeometry>
        </mxCell>
        <mxCell id="5lNwaN1Og0FVlDpz_DzG-1" value="Pessoa" style="whiteSpace=wrap;html=1;align=center;" parent="1" vertex="1">
          <mxGeometry x="120" y="100" width="100" height="40" as="geometry" />
        </mxCell>
        <mxCell id="5lNwaN1Og0FVlDpz_DzG-7" style="edgeStyle=orthogonalEdgeStyle;rounded=0;orthogonalLoop=1;jettySize=auto;html=1;exitX=0.5;exitY=1;exitDx=0;exitDy=0;entryX=0.5;entryY=0;entryDx=0;entryDy=0;" parent="1" source="5lNwaN1Og0FVlDpz_DzG-2" target="5lNwaN1Og0FVlDpz_DzG-4" edge="1">
          <mxGeometry relative="1" as="geometry" />
        </mxCell>
        <mxCell id="5lNwaN1Og0FVlDpz_DzG-2" value="Banco" style="whiteSpace=wrap;html=1;align=center;" parent="1" vertex="1">
          <mxGeometry x="420" y="80" width="100" height="40" as="geometry" />
        </mxCell>
        <mxCell id="5lNwaN1Og0FVlDpz_DzG-3" value="Company" style="whiteSpace=wrap;html=1;align=center;" parent="1" vertex="1">
          <mxGeometry x="640" y="120" width="100" height="40" as="geometry" />
        </mxCell>
        <mxCell id="5lNwaN1Og0FVlDpz_DzG-20" style="edgeStyle=orthogonalEdgeStyle;rounded=0;orthogonalLoop=1;jettySize=auto;html=1;exitX=1;exitY=0.5;exitDx=0;exitDy=0;entryX=0.5;entryY=1;entryDx=0;entryDy=0;" parent="1" source="5lNwaN1Og0FVlDpz_DzG-4" target="5lNwaN1Og0FVlDpz_DzG-3" edge="1">
          <mxGeometry relative="1" as="geometry" />
        </mxCell>
        <mxCell id="5lNwaN1Og0FVlDpz_DzG-28" style="edgeStyle=orthogonalEdgeStyle;rounded=0;orthogonalLoop=1;jettySize=auto;html=1;exitX=0.5;exitY=1;exitDx=0;exitDy=0;" parent="1" source="5lNwaN1Og0FVlDpz_DzG-4" target="5lNwaN1Og0FVlDpz_DzG-8" edge="1">
          <mxGeometry relative="1" as="geometry" />
        </mxCell>
        <mxCell id="5lNwaN1Og0FVlDpz_DzG-4" value="u" style="ellipse;whiteSpace=wrap;html=1;aspect=fixed;" parent="1" vertex="1">
          <mxGeometry x="414" y="195" width="30" height="30" as="geometry" />
        </mxCell>
        <mxCell id="5lNwaN1Og0FVlDpz_DzG-8" value="Owner" style="whiteSpace=wrap;html=1;align=center;" parent="1" vertex="1">
          <mxGeometry x="379" y="290" width="100" height="40" as="geometry" />
        </mxCell>
        <mxCell id="5lNwaN1Og0FVlDpz_DzG-14" style="edgeStyle=orthogonalEdgeStyle;rounded=0;orthogonalLoop=1;jettySize=auto;html=1;exitX=1;exitY=0.5;exitDx=0;exitDy=0;entryX=0;entryY=0.5;entryDx=0;entryDy=0;" parent="1" source="5lNwaN1Og0FVlDpz_DzG-9" target="5lNwaN1Og0FVlDpz_DzG-1" edge="1">
          <mxGeometry relative="1" as="geometry" />
        </mxCell>
        <mxCell id="5lNwaN1Og0FVlDpz_DzG-9" value="&lt;u&gt;CNH&lt;/u&gt;" style="ellipse;whiteSpace=wrap;html=1;align=center;" parent="1" vertex="1">
          <mxGeometry y="100" width="100" height="40" as="geometry" />
        </mxCell>
        <mxCell id="5lNwaN1Og0FVlDpz_DzG-15" style="edgeStyle=orthogonalEdgeStyle;rounded=0;orthogonalLoop=1;jettySize=auto;html=1;exitX=0.5;exitY=1;exitDx=0;exitDy=0;entryX=0;entryY=0;entryDx=0;entryDy=0;" parent="1" source="5lNwaN1Og0FVlDpz_DzG-10" target="5lNwaN1Og0FVlDpz_DzG-1" edge="1">
          <mxGeometry relative="1" as="geometry" />
        </mxCell>
        <mxCell id="5lNwaN1Og0FVlDpz_DzG-10" value="&lt;u&gt;CPF&lt;/u&gt;" style="ellipse;whiteSpace=wrap;html=1;align=center;" parent="1" vertex="1">
          <mxGeometry x="60" y="20" width="100" height="40" as="geometry" />
        </mxCell>
        <mxCell id="5lNwaN1Og0FVlDpz_DzG-16" style="edgeStyle=orthogonalEdgeStyle;rounded=0;orthogonalLoop=1;jettySize=auto;html=1;exitX=0.5;exitY=1;exitDx=0;exitDy=0;entryX=0.5;entryY=0;entryDx=0;entryDy=0;" parent="1" source="5lNwaN1Og0FVlDpz_DzG-11" target="5lNwaN1Og0FVlDpz_DzG-1" edge="1">
          <mxGeometry relative="1" as="geometry" />
        </mxCell>
        <mxCell id="5lNwaN1Og0FVlDpz_DzG-11" value="Nome" style="ellipse;whiteSpace=wrap;html=1;align=center;" parent="1" vertex="1">
          <mxGeometry x="185" y="20" width="100" height="40" as="geometry" />
        </mxCell>
        <mxCell id="5lNwaN1Og0FVlDpz_DzG-17" style="edgeStyle=orthogonalEdgeStyle;rounded=0;orthogonalLoop=1;jettySize=auto;html=1;exitX=0.5;exitY=1;exitDx=0;exitDy=0;entryX=1;entryY=0.5;entryDx=0;entryDy=0;" parent="1" source="5lNwaN1Og0FVlDpz_DzG-12" target="5lNwaN1Og0FVlDpz_DzG-1" edge="1">
          <mxGeometry relative="1" as="geometry">
            <Array as="points">
              <mxPoint x="270" y="120" />
              <mxPoint x="270" y="120" />
            </Array>
          </mxGeometry>
        </mxCell>
        <mxCell id="5lNwaN1Og0FVlDpz_DzG-12" value="Endereço" style="ellipse;whiteSpace=wrap;html=1;align=center;" parent="1" vertex="1">
          <mxGeometry x="250" y="80" width="100" height="40" as="geometry" />
        </mxCell>
        <mxCell id="5lNwaN1Og0FVlDpz_DzG-26" style="edgeStyle=orthogonalEdgeStyle;rounded=0;orthogonalLoop=1;jettySize=auto;html=1;exitX=0.5;exitY=1;exitDx=0;exitDy=0;" parent="1" source="5lNwaN1Og0FVlDpz_DzG-18" edge="1">
          <mxGeometry relative="1" as="geometry">
            <mxPoint x="420" y="90" as="targetPoint" />
            <Array as="points">
              <mxPoint x="400" y="90" />
              <mxPoint x="420" y="90" />
            </Array>
          </mxGeometry>
        </mxCell>
        <mxCell id="5lNwaN1Og0FVlDpz_DzG-18" value="&lt;u&gt;Bname&lt;/u&gt;" style="ellipse;whiteSpace=wrap;html=1;align=center;" parent="1" vertex="1">
          <mxGeometry x="350" y="20" width="100" height="40" as="geometry" />
        </mxCell>
        <mxCell id="5lNwaN1Og0FVlDpz_DzG-25" style="edgeStyle=orthogonalEdgeStyle;rounded=0;orthogonalLoop=1;jettySize=auto;html=1;exitX=0.5;exitY=1;exitDx=0;exitDy=0;entryX=0.75;entryY=0;entryDx=0;entryDy=0;" parent="1" source="5lNwaN1Og0FVlDpz_DzG-19" target="5lNwaN1Og0FVlDpz_DzG-2" edge="1">
          <mxGeometry relative="1" as="geometry" />
        </mxCell>
        <mxCell id="5lNwaN1Og0FVlDpz_DzG-19" value="Baddress" style="ellipse;whiteSpace=wrap;html=1;align=center;" parent="1" vertex="1">
          <mxGeometry x="460" y="20" width="100" height="40" as="geometry" />
        </mxCell>
        <mxCell id="5lNwaN1Og0FVlDpz_DzG-23" style="edgeStyle=orthogonalEdgeStyle;rounded=0;orthogonalLoop=1;jettySize=auto;html=1;exitX=0.5;exitY=1;exitDx=0;exitDy=0;" parent="1" source="5lNwaN1Og0FVlDpz_DzG-21" target="5lNwaN1Og0FVlDpz_DzG-3" edge="1">
          <mxGeometry relative="1" as="geometry" />
        </mxCell>
        <mxCell id="5lNwaN1Og0FVlDpz_DzG-21" value="&lt;u&gt;Cname&lt;/u&gt;" style="ellipse;whiteSpace=wrap;html=1;align=center;" parent="1" vertex="1">
          <mxGeometry x="580" y="40" width="100" height="40" as="geometry" />
        </mxCell>
        <mxCell id="5lNwaN1Og0FVlDpz_DzG-24" style="edgeStyle=orthogonalEdgeStyle;rounded=0;orthogonalLoop=1;jettySize=auto;html=1;exitX=0.5;exitY=1;exitDx=0;exitDy=0;" parent="1" source="5lNwaN1Og0FVlDpz_DzG-22" edge="1">
          <mxGeometry relative="1" as="geometry">
            <mxPoint x="690" y="120" as="targetPoint" />
          </mxGeometry>
        </mxCell>
        <mxCell id="5lNwaN1Og0FVlDpz_DzG-22" value="Caddress" style="ellipse;whiteSpace=wrap;html=1;align=center;" parent="1" vertex="1">
          <mxGeometry x="690" y="40" width="100" height="40" as="geometry" />
        </mxCell>
      </root>
    </mxGraphModel>
  </diagram>
</mxfile>
